Coordinates
version=1
nRows=58
nColumns=19
inDegrees=yes

Units are S.I. units (second, meters, Newtons, ...)
Angles are in degrees.

endheader
time	1_Force_X	1_Force_Y	1_Force_Z	1_Moment_X	1_Moment_Y	1_Moment_Z	1_COP_X	1_COP_Y	1_COP_Z	2_Force_X	2_Force_Y	2_Force_Z	2_Moment_X	2_Moment_Y	2_Moment_Z	2_COP_X	2_COP_Y	2_COP_Z
0.3775	-5.790	238.396	-4.790	-0.296	0.000	0.540	12.236	191.827	5.049	-0.337	0.000	0.166	0.00000	2.64375	0.00000	0.00000	3.93706	0.00000
0.3800	-6.183	238.578	-4.523	-0.296	0.000	0.540	12.367	190.456	5.090	-0.337	0.000	0.166	0.00000	2.68375	0.00000	0.00000	4.02626	0.00000
0.3825	-6.143	240.319	-4.436	-0.296	0.000	0.539	12.582	190.972	5.442	-0.337	0.000	0.166	0.00000	2.79856	0.00000	0.00000	3.97788	0.00000
0.3850	-6.501	241.360	-4.569	-0.296	0.000	0.540	12.232	190.116	5.525	-0.336	0.000	0.166	0.00000	2.81993	0.00000	0.00000	4.04160	0.00000
0.3875	-6.945	243.634	-4.698	-0.296	0.000	0.538	12.013	190.289	5.655	-0.336	0.000	0.166	0.00000	2.93762	0.00000	0.00000	4.07315	0.00000
0.3900	-7.173	245.724	-5.096	-0.296	0.000	0.538	12.053	191.154	6.225	-0.336	0.000	0.166	0.00000	3.06410	0.00000	0.00000	4.12695	0.00000
0.3925	-7.666	246.943	-5.227	-0.296	0.000	0.538	12.526	189.272	7.406	-0.336	0.000	0.166	0.00000	3.18079	0.00000	0.00000	4.15243	0.00000
0.3950	-7.761	247.815	-5.314	-0.297	0.000	0.538	12.434	190.657	8.459	-0.337	0.000	0.166	0.00000	3.29215	0.00000	0.00000	4.28557	0.00000
0.3975	-7.986	249.735	-5.711	-0.296	0.000	0.538	12.822	190.666	9.247	-0.336	0.000	0.166	0.00000	3.40148	0.00000	0.00000	4.37839	0.00000
0.4000	-8.476	250.957	-6.017	-0.296	0.000	0.537	13.123	191.874	10.127	-0.336	0.000	0.166	0.00000	3.44608	0.00000	0.00000	4.36493	0.00000
0.4025	-9.004	251.666	-5.571	-0.296	0.000	0.537	13.295	192.052	10.742	-0.337	0.000	0.166	0.00000	3.55647	0.00000	0.00000	4.44367	0.00000
0.4050	-9.056	252.707	-5.970	-0.297	0.000	0.537	13.594	192.747	11.751	-0.336	0.000	0.166	0.00000	3.62959	0.00000	0.00000	4.47953	0.00000
0.4075	-9.278	254.797	-5.927	-0.296	0.000	0.536	13.725	195.670	12.068	-0.336	0.000	0.166	0.00000	3.68278	0.00000	0.00000	4.46706	0.00000
0.4100	-9.406	254.635	-5.569	-0.296	0.000	0.535	14.153	195.851	13.427	-0.336	0.000	0.167	0.00000	3.72404	0.00000	0.00000	4.46672	0.00000
0.4125	-9.451	255.331	-5.569	-0.296	0.000	0.535	14.062	197.405	14.262	-0.336	0.000	0.166	0.00000	3.75210	0.00000	0.00000	4.55621	0.00000
0.4150	-9.714	255.682	-5.259	-0.296	0.000	0.535	14.581	197.582	14.966	-0.336	0.000	0.166	0.00000	3.76533	0.00000	0.00000	4.55606	0.00000
0.4175	-9.317	256.203	-4.599	-0.297	0.000	0.535	14.752	200.512	15.982	-0.337	0.000	0.166	0.00000	3.84691	0.00000	0.00000	4.62375	0.00000
0.4200	-9.272	255.332	-4.466	-0.297	0.000	0.536	14.875	198.976	17.333	-0.337	0.000	0.166	0.00000	3.84798	0.00000	0.00000	4.71452	0.00000
0.4225	-9.046	254.465	-4.023	-0.297	0.000	0.535	14.697	199.498	18.079	-0.337	0.000	0.166	0.00000	3.82240	0.00000	0.00000	4.76954	0.00000
0.4250	-8.820	254.296	-3.448	-0.297	0.000	0.535	14.822	200.020	19.000	-0.337	0.000	0.167	0.00000	3.83649	0.00000	0.00000	4.79641	0.00000
0.4275	-9.347	255.347	-3.313	-0.296	0.000	0.534	14.336	200.196	19.651	-0.337	0.000	0.166	0.00000	3.83894	0.00000	0.00000	4.80991	0.00000
0.4300	-9.167	255.347	-2.608	-0.297	0.000	0.534	14.461	200.374	20.528	-0.336	0.000	0.167	0.00000	3.85721	0.00000	0.00000	4.82794	0.00000
0.4325	-9.213	255.700	-2.650	-0.297	0.000	0.534	14.282	200.033	21.094	-0.337	0.000	0.166	0.00000	3.93563	0.00000	0.00000	4.82106	0.00000
0.4350	-9.256	257.613	-2.255	-0.297	0.000	0.533	14.194	199.863	21.310	-0.337	0.000	0.166	0.00000	3.93889	0.00000	0.00000	4.84446	0.00000
0.4375	-9.659	259.010	-2.298	-0.297	0.000	0.533	14.100	200.898	22.231	-0.337	0.000	0.166	0.00000	4.08011	0.00000	0.00000	4.80586	0.00000
0.4400	-9.706	260.232	-2.341	-0.297	0.000	0.533	14.490	200.732	22.932	-0.337	0.000	0.166	0.00000	4.17851	0.00000	0.00000	4.83866	0.00000
0.4425	-10.071	264.063	-2.653	-0.297	0.000	0.533	14.579	201.763	22.848	-0.338	0.000	0.165	0.00000	4.40184	0.00000	0.00000	4.83467	0.00000
0.4450	-10.737	267.720	-2.831	-0.296	0.000	0.533	14.536	203.992	22.546	-0.337	0.000	0.165	0.00000	4.49562	0.00000	0.00000	4.74622	0.00000
0.4475	-10.578	271.021	-3.541	-0.297	0.000	0.532	14.931	205.369	22.683	-0.338	0.000	0.165	0.00000	4.70184	0.00000	0.00000	4.75948	0.00000
0.4500	-10.985	274.850	-3.940	-0.297	0.000	0.532	15.195	207.085	22.513	-0.338	0.000	0.164	0.00000	4.82232	0.00000	0.00000	4.70235	0.00000
0.4525	-11.253	276.947	-3.895	-0.296	0.000	0.532	15.286	209.831	22.214	-0.339	0.000	0.163	0.00000	4.99875	0.00000	0.00000	4.67627	0.00000
0.4550	-11.700	281.649	-3.809	-0.296	0.000	0.530	15.248	213.089	21.478	-0.339	0.000	0.163	0.00000	5.11256	0.00000	0.00000	4.60566	0.00000
0.4575	-11.927	282.866	-4.031	-0.296	0.000	0.531	15.469	214.462	21.351	-0.340	0.000	0.162	0.00000	5.22542	0.00000	0.00000	4.57886	0.00000
0.4600	-12.107	286.342	-3.727	-0.296	0.000	0.531	15.474	218.581	20.967	-0.340	0.000	0.161	0.00000	5.30349	0.00000	0.00000	4.49152	0.00000
0.4625	-12.502	289.663	-3.240	-0.296	0.000	0.530	15.216	221.840	20.450	-0.340	0.000	0.161	0.00000	5.45562	0.00000	0.00000	4.41175	0.00000
0.4650	-12.689	293.659	-3.289	-0.296	0.000	0.530	15.480	224.242	20.328	-0.340	0.000	0.161	0.00000	5.56709	0.00000	0.00000	4.33042	0.00000
0.4675	-12.737	295.572	-3.072	-0.296	0.000	0.530	15.395	226.307	20.465	-0.341	0.000	0.161	0.00000	5.69502	0.00000	0.00000	4.38905	0.00000
0.4700	-13.145	300.101	-3.338	-0.296	0.000	0.530	15.657	228.886	20.865	-0.342	0.000	0.160	0.00000	5.92179	0.00000	0.00000	4.35938	0.00000
0.4725	-13.245	304.279	-3.782	-0.296	0.000	0.529	15.524	231.290	21.222	-0.342	0.000	0.160	0.00000	6.13228	0.00000	0.00000	4.26221	0.00000
0.4750	-13.698	308.800	-4.229	-0.296	0.000	0.529	15.608	234.217	22.059	-0.343	0.000	0.160	0.00000	6.28645	0.00000	0.00000	4.26412	0.00000
0.4775	-13.802	313.325	-4.850	-0.296	0.000	0.529	15.564	235.077	22.194	-0.343	0.000	0.160	0.00000	6.52870	0.00000	0.00000	4.25842	0.00000
0.4800	-13.991	318.546	-5.120	-0.296	0.000	0.529	15.517	237.315	23.030	-0.343	0.000	0.159	0.00000	6.76637	0.00000	0.00000	4.23634	0.00000
0.4825	-14.530	324.110	-5.701	-0.295	0.000	0.529	14.992	240.407	23.165	-0.343	0.000	0.159	0.00000	6.86167	0.00000	0.00000	4.17578	0.00000
0.4850	-14.623	328.116	-5.484	-0.295	0.000	0.528	15.207	242.299	23.786	-0.343	0.000	0.159	0.00000	7.05212	0.00000	0.00000	4.11185	0.00000
0.4875	-14.281	332.806	-5.536	-0.295	0.000	0.528	14.768	243.504	24.222	-0.344	0.000	0.159	0.00000	7.21801	0.00000	0.00000	4.10298	0.00000
0.4900	-14.508	337.153	-5.674	-0.295	0.000	0.528	15.157	245.915	25.106	-0.344	0.000	0.159	0.00000	7.28092	0.00000	0.00000	4.08156	0.00000
0.4925	-14.205	340.281	-5.812	-0.295	0.000	0.528	15.027	248.667	25.330	-0.344	0.000	0.158	0.00000	7.42519	0.00000	0.00000	4.11253	0.00000
0.4950	-14.034	341.845	-5.639	-0.295	0.000	0.528	15.723	249.873	25.948	-0.344	0.000	0.158	0.00000	7.59167	0.00000	0.00000	4.07443	0.00000
0.4975	-13.549	344.973	-5.294	-0.294	0.000	0.528	15.721	252.793	26.306	-0.345	0.000	0.157	0.00000	7.63820	0.00000	0.00000	3.96898	0.00000
0.5000	-13.195	346.366	-5.119	-0.294	0.000	0.527	15.851	255.028	26.617	-0.345	0.000	0.157	0.00000	7.68391	0.00000	0.00000	3.94018	0.00000
0.5025	-13.371	349.155	-4.458	-0.294	0.000	0.527	15.766	258.116	26.363	-0.345	0.000	0.157	0.00000	7.78918	0.00000	0.00000	3.84355	0.00000
0.5050	-13.153	349.857	-4.192	-0.294	0.000	0.527	15.899	260.521	26.325	-0.345	0.000	0.156	0.00000	7.91671	0.00000	0.00000	3.80305	0.00000
0.5075	-13.104	350.730	-3.796	-0.294	0.000	0.526	16.248	262.240	26.462	-0.345	0.000	0.156	0.00000	7.93913	0.00000	0.00000	3.78035	0.00000
0.5100	-12.927	350.734	-3.706	-0.294	0.000	0.526	16.510	265.502	26.514	-0.345	0.000	0.155	0.00000	8.00540	0.00000	0.00000	3.68664	0.00000
0.5125	-12.927	351.267	-3.482	-0.294	0.000	0.525	16.949	266.531	26.301	-0.346	0.000	0.155	0.00000	8.10758	0.00000	0.00000	3.64983	0.00000
0.5150	-12.667	352.138	-3.526	-0.294	0.000	0.525	17.257	269.792	26.267	-0.346	0.000	0.155	0.00000	8.21593	0.00000	0.00000	3.54243	0.00000
0.5175	-12.676	354.226	-3.704	-0.294	0.000	0.525	17.781	272.026	26.316	-0.346	0.000	0.154	0.00000	8.36788	0.00000	0.00000	3.52527	0.00000
0.5200	-12.727	355.104	-4.274	-0.294	0.000	0.525	18.350	273.914	26.325	-0.346	0.000	0.154	0.00000	8.50479	0.00000	0.00000	3.46005	0.00000
